<mxfile host="65bd71144e">
    <diagram id="RTrVDeZuNBk5JmxuE9mG" name="Page-1">
        <mxGraphModel dx="777" dy="377" grid="1" gridSize="10" guides="1" tooltips="1" connect="1" arrows="1" fold="1" page="1" pageScale="1" pageWidth="827" pageHeight="1169" math="0" shadow="0">
            <root>
                <mxCell id="0"/>
                <mxCell id="1" parent="0"/>
                <mxCell id="2" value="Phone" style="swimlane;fontStyle=1;align=center;verticalAlign=top;childLayout=stackLayout;horizontal=1;startSize=26;horizontalStack=0;resizeParent=1;resizeParentMax=0;resizeLast=0;collapsible=1;marginBottom=0;" vertex="1" parent="1">
                    <mxGeometry x="230" y="80" width="160" height="60" as="geometry"/>
                </mxCell>
                <mxCell id="4" value="" style="line;strokeWidth=1;fillColor=none;align=left;verticalAlign=middle;spacingTop=-1;spacingLeft=3;spacingRight=3;rotatable=0;labelPosition=right;points=[];portConstraint=eastwest;" vertex="1" parent="2">
                    <mxGeometry y="26" width="160" height="8" as="geometry"/>
                </mxCell>
                <mxCell id="5" value="+ GetPhone():IPhone" style="text;strokeColor=none;fillColor=none;align=left;verticalAlign=top;spacingLeft=4;spacingRight=4;overflow=hidden;rotatable=0;points=[[0,0.5],[1,0.5]];portConstraint=eastwest;" vertex="1" parent="2">
                    <mxGeometry y="34" width="160" height="26" as="geometry"/>
                </mxCell>
                <mxCell id="9" value="MiniPhone" style="swimlane;fontStyle=1;align=center;verticalAlign=top;childLayout=stackLayout;horizontal=1;startSize=26;horizontalStack=0;resizeParent=1;resizeParentMax=0;resizeLast=0;collapsible=1;marginBottom=0;" vertex="1" parent="1">
                    <mxGeometry x="120" y="170" width="160" height="70" as="geometry"/>
                </mxCell>
                <mxCell id="10" value="" style="line;strokeWidth=1;fillColor=none;align=left;verticalAlign=middle;spacingTop=-1;spacingLeft=3;spacingRight=3;rotatable=0;labelPosition=right;points=[];portConstraint=eastwest;" vertex="1" parent="9">
                    <mxGeometry y="26" width="160" height="8" as="geometry"/>
                </mxCell>
                <mxCell id="11" value="+ GetPhone(): Phone" style="text;strokeColor=none;fillColor=none;align=left;verticalAlign=top;spacingLeft=4;spacingRight=4;overflow=hidden;rotatable=0;points=[[0,0.5],[1,0.5]];portConstraint=eastwest;" vertex="1" parent="9">
                    <mxGeometry y="34" width="160" height="36" as="geometry"/>
                </mxCell>
                <mxCell id="15" value="MaxPhone" style="swimlane;fontStyle=1;align=center;verticalAlign=top;childLayout=stackLayout;horizontal=1;startSize=26;horizontalStack=0;resizeParent=1;resizeParentMax=0;resizeLast=0;collapsible=1;marginBottom=0;" vertex="1" parent="1">
                    <mxGeometry x="350" y="170" width="160" height="70" as="geometry"/>
                </mxCell>
                <mxCell id="16" value="" style="line;strokeWidth=1;fillColor=none;align=left;verticalAlign=middle;spacingTop=-1;spacingLeft=3;spacingRight=3;rotatable=0;labelPosition=right;points=[];portConstraint=eastwest;" vertex="1" parent="15">
                    <mxGeometry y="26" width="160" height="8" as="geometry"/>
                </mxCell>
                <mxCell id="17" value="+ GetPhone(): Phone" style="text;strokeColor=none;fillColor=none;align=left;verticalAlign=top;spacingLeft=4;spacingRight=4;overflow=hidden;rotatable=0;points=[[0,0.5],[1,0.5]];portConstraint=eastwest;" vertex="1" parent="15">
                    <mxGeometry y="34" width="160" height="36" as="geometry"/>
                </mxCell>
                <mxCell id="18" value="" style="endArrow=block;dashed=1;endFill=0;endSize=12;html=1;entryX=0.463;entryY=1.077;entryDx=0;entryDy=0;entryPerimeter=0;exitX=0.5;exitY=0;exitDx=0;exitDy=0;" edge="1" parent="1" source="9" target="5">
                    <mxGeometry width="160" relative="1" as="geometry">
                        <mxPoint x="210" y="150" as="sourcePoint"/>
                        <mxPoint x="260" y="210" as="targetPoint"/>
                    </mxGeometry>
                </mxCell>
                <mxCell id="19" value="" style="endArrow=block;dashed=1;endFill=0;endSize=12;html=1;exitX=0.544;exitY=-0.012;exitDx=0;exitDy=0;exitPerimeter=0;entryX=0.6;entryY=1;entryDx=0;entryDy=0;entryPerimeter=0;" edge="1" parent="1" source="15" target="5">
                    <mxGeometry width="160" relative="1" as="geometry">
                        <mxPoint x="440" y="150" as="sourcePoint"/>
                        <mxPoint x="330" y="120" as="targetPoint"/>
                    </mxGeometry>
                </mxCell>
                <mxCell id="23" value="HuaweiMiniPhone" style="swimlane;fontStyle=1;align=center;verticalAlign=top;childLayout=stackLayout;horizontal=1;startSize=26;horizontalStack=0;resizeParent=1;resizeParentMax=0;resizeLast=0;collapsible=1;marginBottom=0;" vertex="1" parent="1">
                    <mxGeometry x="20" y="270" width="160" height="70" as="geometry"/>
                </mxCell>
                <mxCell id="24" value="" style="line;strokeWidth=1;fillColor=none;align=left;verticalAlign=middle;spacingTop=-1;spacingLeft=3;spacingRight=3;rotatable=0;labelPosition=right;points=[];portConstraint=eastwest;" vertex="1" parent="23">
                    <mxGeometry y="26" width="160" height="8" as="geometry"/>
                </mxCell>
                <mxCell id="25" value="+ GetPhone(): Phone" style="text;strokeColor=none;fillColor=none;align=left;verticalAlign=top;spacingLeft=4;spacingRight=4;overflow=hidden;rotatable=0;points=[[0,0.5],[1,0.5]];portConstraint=eastwest;" vertex="1" parent="23">
                    <mxGeometry y="34" width="160" height="36" as="geometry"/>
                </mxCell>
                <mxCell id="26" value="AppleMiniPhone" style="swimlane;fontStyle=1;align=center;verticalAlign=top;childLayout=stackLayout;horizontal=1;startSize=26;horizontalStack=0;resizeParent=1;resizeParentMax=0;resizeLast=0;collapsible=1;marginBottom=0;" vertex="1" parent="1">
                    <mxGeometry x="220" y="270" width="160" height="70" as="geometry"/>
                </mxCell>
                <mxCell id="27" value="" style="line;strokeWidth=1;fillColor=none;align=left;verticalAlign=middle;spacingTop=-1;spacingLeft=3;spacingRight=3;rotatable=0;labelPosition=right;points=[];portConstraint=eastwest;" vertex="1" parent="26">
                    <mxGeometry y="26" width="160" height="8" as="geometry"/>
                </mxCell>
                <mxCell id="28" value="+ GetPhone(): Phone" style="text;strokeColor=none;fillColor=none;align=left;verticalAlign=top;spacingLeft=4;spacingRight=4;overflow=hidden;rotatable=0;points=[[0,0.5],[1,0.5]];portConstraint=eastwest;" vertex="1" parent="26">
                    <mxGeometry y="34" width="160" height="36" as="geometry"/>
                </mxCell>
                <mxCell id="32" value="" style="endArrow=block;dashed=1;endFill=0;endSize=12;html=1;exitX=0.5;exitY=0;exitDx=0;exitDy=0;" edge="1" parent="1">
                    <mxGeometry width="160" relative="1" as="geometry">
                        <mxPoint x="100" y="270" as="sourcePoint"/>
                        <mxPoint x="190" y="242" as="targetPoint"/>
                    </mxGeometry>
                </mxCell>
                <mxCell id="33" value="" style="endArrow=block;dashed=1;endFill=0;endSize=12;html=1;exitX=0.444;exitY=-0.014;exitDx=0;exitDy=0;exitPerimeter=0;entryX=0.6;entryY=1;entryDx=0;entryDy=0;entryPerimeter=0;" edge="1" parent="1" source="26">
                    <mxGeometry width="160" relative="1" as="geometry">
                        <mxPoint x="331.03999999999996" y="270" as="sourcePoint"/>
                        <mxPoint x="220" y="240.84" as="targetPoint"/>
                    </mxGeometry>
                </mxCell>
                <mxCell id="34" value="HuaweiMaxPhone" style="swimlane;fontStyle=1;align=center;verticalAlign=top;childLayout=stackLayout;horizontal=1;startSize=26;horizontalStack=0;resizeParent=1;resizeParentMax=0;resizeLast=0;collapsible=1;marginBottom=0;" vertex="1" parent="1">
                    <mxGeometry x="400" y="280" width="160" height="70" as="geometry"/>
                </mxCell>
                <mxCell id="35" value="" style="line;strokeWidth=1;fillColor=none;align=left;verticalAlign=middle;spacingTop=-1;spacingLeft=3;spacingRight=3;rotatable=0;labelPosition=right;points=[];portConstraint=eastwest;" vertex="1" parent="34">
                    <mxGeometry y="26" width="160" height="8" as="geometry"/>
                </mxCell>
                <mxCell id="36" value="+ GetPhone(): Phone" style="text;strokeColor=none;fillColor=none;align=left;verticalAlign=top;spacingLeft=4;spacingRight=4;overflow=hidden;rotatable=0;points=[[0,0.5],[1,0.5]];portConstraint=eastwest;" vertex="1" parent="34">
                    <mxGeometry y="34" width="160" height="36" as="geometry"/>
                </mxCell>
                <mxCell id="37" value="AppleMaxPhone" style="swimlane;fontStyle=1;align=center;verticalAlign=top;childLayout=stackLayout;horizontal=1;startSize=26;horizontalStack=0;resizeParent=1;resizeParentMax=0;resizeLast=0;collapsible=1;marginBottom=0;" vertex="1" parent="1">
                    <mxGeometry x="600" y="280" width="160" height="70" as="geometry"/>
                </mxCell>
                <mxCell id="38" value="" style="line;strokeWidth=1;fillColor=none;align=left;verticalAlign=middle;spacingTop=-1;spacingLeft=3;spacingRight=3;rotatable=0;labelPosition=right;points=[];portConstraint=eastwest;" vertex="1" parent="37">
                    <mxGeometry y="26" width="160" height="8" as="geometry"/>
                </mxCell>
                <mxCell id="39" value="+ GetPhone(): Phone" style="text;strokeColor=none;fillColor=none;align=left;verticalAlign=top;spacingLeft=4;spacingRight=4;overflow=hidden;rotatable=0;points=[[0,0.5],[1,0.5]];portConstraint=eastwest;" vertex="1" parent="37">
                    <mxGeometry y="34" width="160" height="36" as="geometry"/>
                </mxCell>
                <mxCell id="40" value="" style="endArrow=block;dashed=1;endFill=0;endSize=12;html=1;exitX=0.5;exitY=0;exitDx=0;exitDy=0;entryX=0.425;entryY=0.972;entryDx=0;entryDy=0;entryPerimeter=0;" edge="1" parent="1" target="17">
                    <mxGeometry width="160" relative="1" as="geometry">
                        <mxPoint x="480" y="280" as="sourcePoint"/>
                        <mxPoint x="570" y="252" as="targetPoint"/>
                    </mxGeometry>
                </mxCell>
                <mxCell id="41" value="" style="endArrow=block;dashed=1;endFill=0;endSize=12;html=1;exitX=0.444;exitY=-0.014;exitDx=0;exitDy=0;exitPerimeter=0;entryX=0.7;entryY=0.972;entryDx=0;entryDy=0;entryPerimeter=0;" edge="1" parent="1" source="37" target="17">
                    <mxGeometry width="160" relative="1" as="geometry">
                        <mxPoint x="711.04" y="280" as="sourcePoint"/>
                        <mxPoint x="600" y="250.84000000000003" as="targetPoint"/>
                    </mxGeometry>
                </mxCell>
                <mxCell id="42" value="xxxPhone" style="swimlane;fontStyle=1;align=center;verticalAlign=top;childLayout=stackLayout;horizontal=1;startSize=26;horizontalStack=0;resizeParent=1;resizeParentMax=0;resizeLast=0;collapsible=1;marginBottom=0;" vertex="1" parent="1">
                    <mxGeometry x="640" y="170" width="160" height="70" as="geometry"/>
                </mxCell>
                <mxCell id="43" value="" style="line;strokeWidth=1;fillColor=none;align=left;verticalAlign=middle;spacingTop=-1;spacingLeft=3;spacingRight=3;rotatable=0;labelPosition=right;points=[];portConstraint=eastwest;" vertex="1" parent="42">
                    <mxGeometry y="26" width="160" height="8" as="geometry"/>
                </mxCell>
                <mxCell id="44" value="+ GetPhone(): Phone" style="text;strokeColor=none;fillColor=none;align=left;verticalAlign=top;spacingLeft=4;spacingRight=4;overflow=hidden;rotatable=0;points=[[0,0.5],[1,0.5]];portConstraint=eastwest;" vertex="1" parent="42">
                    <mxGeometry y="34" width="160" height="36" as="geometry"/>
                </mxCell>
                <mxCell id="45" value="......" style="text;html=1;align=center;verticalAlign=middle;resizable=0;points=[];autosize=1;strokeColor=none;" vertex="1" parent="1">
                    <mxGeometry x="550" y="190" width="40" height="20" as="geometry"/>
                </mxCell>
                <mxCell id="46" value="Pad" style="swimlane;fontStyle=1;align=center;verticalAlign=top;childLayout=stackLayout;horizontal=1;startSize=26;horizontalStack=0;resizeParent=1;resizeParentMax=0;resizeLast=0;collapsible=1;marginBottom=0;" vertex="1" parent="1">
                    <mxGeometry x="490" y="80" width="160" height="60" as="geometry"/>
                </mxCell>
                <mxCell id="47" value="" style="line;strokeWidth=1;fillColor=none;align=left;verticalAlign=middle;spacingTop=-1;spacingLeft=3;spacingRight=3;rotatable=0;labelPosition=right;points=[];portConstraint=eastwest;" vertex="1" parent="46">
                    <mxGeometry y="26" width="160" height="8" as="geometry"/>
                </mxCell>
                <mxCell id="48" value="+ GetPhone():IPhone" style="text;strokeColor=none;fillColor=none;align=left;verticalAlign=top;spacingLeft=4;spacingRight=4;overflow=hidden;rotatable=0;points=[[0,0.5],[1,0.5]];portConstraint=eastwest;" vertex="1" parent="46">
                    <mxGeometry y="34" width="160" height="26" as="geometry"/>
                </mxCell>
                <mxCell id="49" value="PC" style="swimlane;fontStyle=1;align=center;verticalAlign=top;childLayout=stackLayout;horizontal=1;startSize=26;horizontalStack=0;resizeParent=1;resizeParentMax=0;resizeLast=0;collapsible=1;marginBottom=0;" vertex="1" parent="1">
                    <mxGeometry x="710" y="80" width="160" height="60" as="geometry"/>
                </mxCell>
                <mxCell id="50" value="" style="line;strokeWidth=1;fillColor=none;align=left;verticalAlign=middle;spacingTop=-1;spacingLeft=3;spacingRight=3;rotatable=0;labelPosition=right;points=[];portConstraint=eastwest;" vertex="1" parent="49">
                    <mxGeometry y="26" width="160" height="8" as="geometry"/>
                </mxCell>
                <mxCell id="51" value="+ GetPhone():IPhone" style="text;strokeColor=none;fillColor=none;align=left;verticalAlign=top;spacingLeft=4;spacingRight=4;overflow=hidden;rotatable=0;points=[[0,0.5],[1,0.5]];portConstraint=eastwest;" vertex="1" parent="49">
                    <mxGeometry y="34" width="160" height="26" as="geometry"/>
                </mxCell>
                <mxCell id="52" value="......" style="text;html=1;align=center;verticalAlign=middle;resizable=0;points=[];autosize=1;strokeColor=none;" vertex="1" parent="1">
                    <mxGeometry x="420" y="100" width="40" height="20" as="geometry"/>
                </mxCell>
                <mxCell id="53" value="......" style="text;html=1;align=center;verticalAlign=middle;resizable=0;points=[];autosize=1;strokeColor=none;" vertex="1" parent="1">
                    <mxGeometry x="660" y="90" width="40" height="20" as="geometry"/>
                </mxCell>
            </root>
        </mxGraphModel>
    </diagram>
</mxfile>